# AST/ASF file generated using VICON BodyLanguage
# -----------------------------------------------
:version 1.10
:name VICON
:units
  mass 1.0
  length 0.45
  angle deg
:documentation
   .ast/.asf automatically generated from VICON data using
   VICON BodyBuilder and BodyLanguage model FoxedUp or BRILLIANT.MOD
:root
   order TX TY TZ RX RY RZ
   axis XYZ
   position 0 0 0  
   orientation 0 0 0 
:bonedata
  begin
     id 1 
     name lhipjoint
     direction 0.62366 -0.717238 0.310833 
     length 2.53602 
     axis 0 0 0  XYZ
  end
  begin
     id 2 
     name lfemur
     direction 0.34202 -0.939693 0  
     length 7.40817  
     axis 0 0 20  XYZ
    dof rx ry rz
    limits (-160.0 20.0)
           (-70.0 70.0)
           (-60.0 70.0)
  end
  begin
     id 3 
     name ltibia
     direction 0.34202 -0.939693 0   
     length 7.7045   
     axis 0 0 20   XYZ
    dof rx
    limits (-10.0 170.0)
  end
  begin
     id 4 
     name lfoot
     direction 0.0673888 -0.185149 0.980397   
     length 2.09456   
     axis -90 7.62852e-016 20   XYZ
    dof rx rz
    limits (-45.0 90.0)
           (-70.0 20.0)
  end
  begin
     id 5 
     name ltoes
     direction 1.53575e-011 -4.21994e-011 1   
     length 1.05543   
     axis -90 7.62852e-016 20   XYZ
    dof rx
    limits (-90.0 20.0)
  end
  begin
     id 6 
     name rhipjoint
     direction -0.489018 -0.800347 0.346851   
     length 2.27268  
     axis 0 0 0  XYZ 
  end
  begin
     id 7 
     name rfemur
     direction -0.34202 -0.939693 0   
     length 7.55487   
     axis 0 0 -20   XYZ
    dof rx ry rz
    limits (-160.0 20.0)
           (-70.0 70.0)
           (-70.0 60.0)
  end
  begin
     id 8 
     name rtibia
     direction -0.34202 -0.939693 0   
     length 7.78969   
     axis 0 0 -20   XYZ
    dof rx
    limits (-10.0 170.0)
 end
 begin
     id 9 
     name rfoot
     direction -0.0859318 -0.236096 0.967923   
     length 2.19143  
     axis -90 -7.62852e-016 -20   XYZ
    dof rx rz
    limits (-45.0 90.0)
           (-20.0 70.0)
  end
  begin
     id 10 
     name rtoes
     direction -1.53538e-011 -4.21989e-011 1   
     length 1.09845   
     axis -90 -7.62852e-016 -20   XYZ
    dof rx
    limits (-90.0 20.0)
  end
  begin
     id 11 
     name lowerback
     direction -0.00762546 0.998978 -0.0445553   
     length 1.98161   
     axis 0 0 0   XYZ
    dof rx ry rz
    limits (-20.0 45.0)
           (-30.0 30.0)
           (-30.0 30.0)
  end
  begin
     id 12 
     name upperback
     direction 0.0422361 0.998867 -0.0219156   
     length 1.97558   
     axis 0 0 0   XYZ
    dof rx ry rz
    limits (-20.0 45.0)
           (-30.0 30.0)
           (-30.0 30.0)
  end
  begin
     id 13 
     name thorax
     direction 0.0442465 0.999021 7.47603e-005   
     length 1.97799   
     axis 0 0 0   XYZ
    dof rx ry rz
    limits (-20.0 45.0)
           (-30.0 30.0)
           (-30.0 30.0)
  end
  begin
     id 14 
     name lowerneck
     direction 0.00312169 0.984641 0.174564   
     length 1.78995   
     axis 0 0 0   XYZ
    dof rx ry rz
    limits (-20.0 45.0)
           (-30.0 30.0)
           (-30.0 30.0)
  end
  begin
     id 15 
     name upperneck
     direction -0.0383028 0.985255 -0.166749   
     length 1.83053   
     axis 0 0 0   XYZ
    dof rx ry rz
    limits (-20.0 45.0)
           (-30.0 30.0)
           (-30.0 30.0)
  end
  begin
     id 16
     name head
     direction -0.0129546 0.997059 -0.0755386  
     length 1.84088  
     axis 0 0 0   XYZ
    dof rx ry rz
    limits (-20.0 45.0)
           (-30.0 30.0)
           (-30.0 30.0)
  end
  begin
     id 17 
     name lclavicle
     direction 0.912857 0.370519 -0.171488  
     length 3.51279  
     axis 0 0 0   XYZ
    dof ry rz
    limits (-20.0 10.0)
           (0.0 20.0)
  end
  begin
     id 18 
     name lhumerus
     direction 1 -4.48962e-011 3.64361e-027   
     length 4.95663   
     axis 180 -30 -90   XYZ
    dof rx ry rz
    limits (-60.0 90.0)
           (-90.0 90.0)
           (-90.0 90.0)
  end
  begin
     id 19
     name lradius
     direction 1 -4.48974e-011 5.97202e-027   
     length 3.38177   
     axis 180 -30 -90   XYZ
    dof rx
    limits (-10.0 170.0)
  end
  begin
     id 20
     name lwrist
     direction 1 -4.4896e-011 9.83288e-027   
     length 1.69088   
     axis -9.31221e-015 90 90   XYZ
    dof ry
    limits (-180.0 0.0)
 end
  begin
     id 21 
     name lhand
     direction 1 -4.4902e-011 1.96551e-026   
     length 0.662909   
     axis -1.25475e-014 90 90   XYZ
    dof rx rz
    limits (-90.0 90.0)
           (-45.0 45.0)
  end
  begin
     id 22 
     name lfingers
     direction 1 -4.48971e-011 3.93277e-026   
     length 0.534454   
     axis -2.50945e-014 90 90   XYZ
    dof rx
    limits (0.0 90.0)
  end
  begin
     id 23
     name lthumb
     direction 0.707107 -6.34933e-011 0.707107   
     length 0.767373   
     axis -90 45 -4.80359e-014   XYZ
    dof rx rz
    limits (-45.0 45.0)
           (-45.0 45.0)
  end
  begin
     id 24 
     name rclavicle
     direction -0.900919 0.395364 -0.178976   
     length 3.40627  
     axis 0 0 0   XYZ 
    dof ry rz
    limits (-10.0 20.0)
           (-20.0 0.0)
  end
  begin
     id 25 
     name rhumerus
     direction -1 -4.48969e-011 1.03875e-027  
     length 5.08365   
     axis 180 30 90   XYZ
    dof rx ry rz
    limits (-90.0 60.0)
           (-90.0 90.0)
           (-90.0 90.0)
  end
  begin
     id 26 
     name rradius
     direction -1 -4.48951e-011 5.02733e-027   
     length 3.35984   
     axis 180 30 90   XYZ
    dof rx
    limits (-10.0 170.0)
  end
  begin
     id 27 
     name rwrist
     direction -1 -4.49011e-011 9.82828e-027   
     length 1.67992   
     axis -9.31221e-015 -90 -90   XYZ
    dof ry
    limits (-180.0 0.0)
  end
  begin
     id 28
     name rhand
     direction -1 -4.48894e-011 1.96774e-026   
     length 0.820764   
     axis -1.25475e-014 -90 -90   XYZ
    dof rx rz
    limits (-90.0 90.0)
           (-45.0 45.0)
  end
  begin
     id 29
     name rfingers
     direction -1 -4.49095e-011 3.92833e-026   
     length 0.661721   
     axis -2.50945e-014 -90 -90   XYZ
    dof rx
    limits (0.0 90.0)
  end
  begin
     id 30
     name rthumb
     direction -0.707107 -6.34881e-011 0.707107   
     length 0.950103   
     axis -90 -45 4.80359e-014   XYZ
    dof rx rz
    limits (-45.0 45.0)
           (-45.0 45.0)
  end
:hierarchy
  begin
    root lhipjoint rhipjoint lowerback
    lhipjoint lfemur
    lfemur ltibia
    ltibia lfoot
    lfoot ltoes
    rhipjoint rfemur
    rfemur rtibia
    rtibia rfoot
    rfoot rtoes
    lowerback upperback
    upperback thorax
    thorax lowerneck lclavicle rclavicle
    lowerneck upperneck
    upperneck head
    lclavicle lhumerus
    lhumerus lradius
    lradius lwrist
    lwrist lhand lthumb
    lhand lfingers
    rclavicle rhumerus
    rhumerus rradius
    rradius rwrist
    rwrist rhand rthumb
    rhand rfingers
  end

#!OML:ASF I:\golf\golf\golf 2\Subject 1\2002-09-07\Subject1.ASF
:FULLY-SPECIFIED
:DEGREES
47
root -6.66547 17.8722 0.217176 -121.855 84.9876 -138.537
lowerback 2.28885 1.4578 -1.65387
upperback 4.18776 1.99744 5.13258
thorax 2.80436 0.936123 6.27087
lowerneck -14.2178 -3.23621 1.32255
upperneck 40.7871 -2.01084 -2.81956
head 17.2517 -0.358696 -1.6875
rclavicle -4.77083e-015 -2.06736e-014
rhumerus -5.49063 -4.1574 -99.2228
rradius 18.6867
rwrist -29.9784
rhand -12.2642 -2.8485
rfingers 7.12502
rthumb 13.8024 -32.3706
lclavicle -4.77083e-015 -2.06736e-014
lhumerus -13.4255 -50.2084 112.194
lradius 32.5754
lwrist 50.2988
lhand -9.87025 70.1226
lfingers 7.12502
lthumb -163.891 80.5269
rfemur -26.0187 -1.08178 11.0918
rtibia 24.8034
rfoot -11.2723 -13.8705
rtoes 24.4359
lfemur -27.8875 4.13755 -6.50299
ltibia 24.9673
lfoot -8.73513 1.06848
ltoes -23.736
48
root -6.6654 17.8724 0.215275 -121.979 85.0083 -138.668
lowerback 2.3081 1.45499 -1.67123
upperback 4.17986 1.99377 5.13154
thorax 2.78527 0.934234 6.27883
lowerneck -14.1857 -3.22144 1.30226
upperneck 40.7708 -1.98831 -2.80216
head 17.2359 -0.350608 -1.67087
rclavicle 9.93923e-015 4.77083e-015
rhumerus -5.7287 -2.91301 -99.2331
rradius 19.1532
rwrist -31.4568
rhand -12.6116 -2.96305
rfingers 7.12502
rthumb 13.4676 -32.5076
lclavicle 9.93923e-015 4.77083e-015
lhumerus -13.5354 -50.3099 112.402
lradius 32.4541
lwrist 49.7923
lhand -10.1339 70.422
lfingers 7.12502
lthumb -164.145 80.2071
rfemur -26.0168 -1.0904 11.0567
rtibia 24.7842
rfoot -11.3545 -13.8191
rtoes 24.8588
lfemur -27.911 4.15679 -6.54752
ltibia 24.9941
lfoot -8.77872 1.06129
ltoes -24.1581
49
root -6.66504 17.8743 0.214682 -121.67 84.9786 -138.373
lowerback 2.30676 1.43581 -1.68998
upperback 4.16026 1.96892 5.18765
thorax 2.76658 0.921635 6.34891
lowerneck -14.119 -3.18877 1.25152
upperneck 40.7716 -1.90869 -2.81784
head 17.2229 -0.327035 -1.65305
rclavicle 3.97569e-015 2.54444e-014
rhumerus -6.19958 -0.469893 -99.1371
rradius 19.9927
rwrist -33.9739
rhand -13.1341 -3.32266
rfingers 7.12502
rthumb 12.9639 -32.8999
lclavicle 3.97569e-015 2.54444e-014
lhumerus -13.6812 -50.3566 112.675
lradius 32.3507
lwrist 49.0164
lhand -10.2773 70.5126
lfingers 7.12502
lthumb -164.283 80.1056
rfemur -26.0313 -1.07707 11.0956
rtibia 24.7796
rfoot -10.8601 -14.0644
rtoes 20.6845
lfemur -27.9315 4.22333 -6.52969
ltibia 25.0017
lfoot -8.82667 1.02674
ltoes -24.7745
50
root -6.66498 17.8749 0.214538 -121.551 84.9825 -138.252
lowerback 2.32275 1.42623 -1.76305
upperback 4.15252 1.95662 5.24103
thorax 2.74761 0.913624 6.44707
lowerneck -14.0846 -3.17096 1.20573
upperneck 40.7953 -1.84048 -2.86155
head 17.2302 -0.310358 -1.65201
rclavicle 1.70955e-014 3.89618e-014
rhumerus -6.48431 1.02044 -99.0499
rradius 20.5108
rwrist -35.355
rhand -13.4388 -3.64951
rfingers 7.12502
rthumb 12.6701 -33.2452
lclavicle 1.70955e-014 3.89618e-014
lhumerus -13.8506 -50.6336 112.972
lradius 32.3695
lwrist 48.1341
lhand -10.3884 70.5215
lfingers 7.12502
lthumb -164.39 80.0883
rfemur -26.0329 -1.07123 11.1061
rtibia 24.7846
rfoot -10.9688 -14.0343
rtoes 21.994
lfemur -27.9209 4.24763 -6.52834
ltibia 25.0006
lfoot -8.83521 1.02365
ltoes -24.4468
51
root -6.66562 17.8733 0.214267 -122.013 85.0634 -138.74
lowerback 2.31177 1.4405 -1.84493
upperback 4.14539 1.974 5.20193
thorax 2.743 0.919871 6.45248
lowerneck -14.1022 -3.16709 1.23412
upperneck 40.8496 -1.82708 -2.88155
head 17.2649 -0.300435 -1.66503
rclavicle -1.59028e-014 -7.63333e-014
rhumerus -6.44342 0.847736 -99.0872
rradius 20.4823
rwrist -35.0892
rhand -13.3906 -3.85522
rfingers 7.12502
rthumb 12.7167 -33.448
lclavicle -1.59028e-014 -7.63333e-014
lhumerus -14.04 -50.9843 113.194
lradius 32.3781
lwrist 47.4553
lhand -10.453 70.5572
lfingers 7.12502
lthumb -164.453 80.0478
rfemur -26.075 -1.09732 11.0128
rtibia 24.8011
rfoot -10.8325 -14.0801
rtoes 21.378
lfemur -27.9336 4.19828 -6.60737
ltibia 24.9939
lfoot -8.80438 1.0641
ltoes -23.8064
52
root -6.66575 17.8721 0.214063 -122.104 85.0955 -138.83
lowerback 2.30114 1.45952 -1.79645
upperback 4.15481 1.99853 5.13527
thorax 2.7589 0.933305 6.3541
lowerneck -14.1133 -3.15875 1.28016
upperneck 40.9014 -1.82417 -2.87259
head 17.2964 -0.288112 -1.66976
rclavicle -1.63003e-014 -2.8625e-014
rhumerus -6.35887 0.553257 -99.1848
rradius 20.423
rwrist -34.9205
rhand -13.3049 -3.95588
rfingers 7.12502
rthumb 12.7993 -33.5435
lclavicle -1.63003e-014 -2.8625e-014
lhumerus -14.2329 -51.3553 113.343
lradius 32.3609
lwrist 47.0103
lhand -10.5747 70.5517
lfingers 7.12502
lthumb -164.57 80.0442
rfemur -26.0938 -1.09378 10.9714
rtibia 24.8416
rfoot -10.8775 -14.0411
rtoes 21.5263
lfemur -27.9151 4.20266 -6.63628
ltibia 24.9723
lfoot -8.74503 1.04872
ltoes -23.4718
53
root -6.66591 17.8707 0.212353 -121.86 85.0862 -138.564
lowerback 2.31616 1.4762 -1.75986
upperback 4.17324 2.02152 5.14106
thorax 2.76769 0.945757 6.33913
lowerneck -14.1218 -3.15299 1.29406
upperneck 40.9216 -1.79688 -2.91671
head 17.3099 -0.279506 -1.68784
rclavicle 3.45885e-014 3.73715e-014
rhumerus -6.48189 1.19215 -99.1393
rradius 20.7875
rwrist -35.6498
rhand -13.2291 -4.29613
rfingers 7.12502
rthumb 12.8723 -33.8792
lclavicle 3.45885e-014 3.73715e-014
lhumerus -14.3896 -51.7264 113.541
lradius 32.3425
lwrist 46.5855
lhand -10.8791 70.6453
lfingers 7.12502
lthumb -164.863 79.9283
rfemur -26.0899 -1.07665 10.9817
rtibia 24.8802
rfoot -10.9851 -13.9798
rtoes 21.8192
lfemur -27.8876 4.2012 -6.61164
ltibia 24.9593
lfoot -8.72849 1.05676
ltoes -23.4876
54
root -6.66683 17.8692 0.20995 -121.887 85.0885 -138.626
lowerback 2.29275 1.47046 -1.8614
upperback 4.17095 2.01399 5.21714
thorax 2.77446 0.938486 6.47933
lowerneck -14.1119 -3.14959 1.30173
upperneck 40.908 -1.7388 -3.05026
head 17.2993 -0.27313 -1.73904
rclavicle 2.78299e-014 4.85035e-014
rhumerus -7.02316 3.6879 -98.9132
rradius 21.953
rwrist -38.1198
rhand -13.5078 -5.06247
rfingers 7.12502
rthumb 12.6036 -34.6623
lclavicle 2.78299e-014 4.85035e-014
lhumerus -14.4701 -51.8718 113.768
lradius 32.2745
lwrist 46.1007
lhand -11.2161 70.6706
lfingers 7.12502
lthumb -165.188 79.8788
rfemur -26.1404 -1.14094 10.9853
rtibia 24.8819
rfoot -10.962 -13.946
rtoes 21.6573
lfemur -27.9411 4.19246 -6.62053
ltibia 24.97
lfoot -8.81573 1.05765
ltoes -23.8406
55
root -6.66735 17.8699 0.209058 -121.82 85.0663 -138.598
lowerback 2.25735 1.46012 -1.91469
upperback 4.16956 2.00024 5.26994
thorax 2.79176 0.929351 6.5676
lowerneck -14.1064 -3.15761 1.32981
upperneck 40.897 -1.71438 -3.16349
head 17.2899 -0.274722 -1.79092
rclavicle -3.29983e-014 -2.78299e-014
rhumerus -6.42997 1.50367 -99.0301
rradius 20.8306
rwrist -36.1484
rhand -13.0633 -4.64824
rfingers 7.12502
rthumb 13.0321 -34.2211
lclavicle -3.29983e-014 -2.78299e-014
lhumerus -14.5075 -51.8664 113.92
lradius 32.1973
lwrist 45.6258
lhand -11.4048 70.6951
lfingers 7.12502
lthumb -165.37 79.841
rfemur -26.1801 -1.16263 11.0107
rtibia 24.874
rfoot -10.9517 -13.9268
rtoes 21.7581
lfemur -27.9962 4.26815 -6.63036
ltibia 24.975
lfoot -8.85098 1.00612
ltoes -24.4196
56
root -6.66689 17.8722 0.209144 -121.232 85.057 -138.007
lowerback 2.25599 1.48957 -1.86396
upperback 4.1765 2.03985 5.25769
thorax 2.79647 0.950724 6.52532
lowerneck -14.1543 -3.17933 1.3728
upperneck 40.9592 -1.74327 -3.19139
head 17.3351 -0.280864 -1.81881
rclavicle -3.97569e-015 2.14687e-014
rhumerus -6.38693 1.64591 -99.0735
rradius 20.8733
rwrist -36.714
rhand -13.2428 -4.78196
rfingers 7.12502
rthumb 12.8592 -34.3658
lclavicle -3.97569e-015 2.14687e-014
lhumerus -14.6283 -52.0387 114.071
lradius 32.1718
lwrist 45.3236
lhand -11.6185 71.0159
lfingers 7.12502
lthumb -165.575 79.5054
rfemur -26.1802 -1.08835 11.0365
rtibia 24.877
rfoot -11.0724 -13.8766
rtoes 22.5572
lfemur -27.9776 4.3464 -6.60794
ltibia 24.9659
lfoot -8.81581 0.997896
ltoes -24.4771
57
root -6.66627 17.8724 0.209096 -120.874 85.1404 -137.641
lowerback 2.30079 1.51056 -1.95687
upperback 4.16426 2.06748 5.2545
thorax 2.75238 0.96286 6.57313
lowerneck -14.1911 -3.16566 1.3852
upperneck 41.0425 -1.70304 -3.22049
head 17.3931 -0.262684 -1.82961
rclavicle 3.18055e-015 -1.90833e-014
rhumerus -6.76174 3.46268 -98.9911
rradius 21.6601
rwrist -38.7744
rhand -13.7627 -5.29793
rfingers 7.12502
rthumb 12.3579 -34.9127
lclavicle 3.18055e-015 -1.90833e-014
lhumerus -14.8024 -52.3077 114.275
lradius 32.1903
lwrist 45.2211
lhand -12.0306 71.417
lfingers 7.12502
lthumb -165.973 79.0763
rfemur -26.1842 -1.08846 10.985
rtibia 24.869
rfoot -11.0062 -13.8457
rtoes 21.9572
lfemur -27.9238 4.34107 -6.6421
ltibia 24.959
lfoot -8.82728 1.03992
ltoes -24.0222
58
root -6.66671 17.8711 0.207389 -121.47 85.2739 -138.243
lowerback 2.33129 1.49393 -2.14872
upperback 4.15799 2.04339 5.24395
thorax 2.72666 0.945371 6.67127
lowerneck -14.2165 -3.11928 1.3874
upperneck 41.0877 -1.6169 -3.24618
head 17.4289 -0.229419 -1.82792
rclavicle 2.62396e-014 5.96354e-014
rhumerus -6.7578 3.6365 -99.009
rradius 21.6745
rwrist -38.9597
rhand -13.9196 -5.39739
rfingers 7.12502
rthumb 12.2066 -35.0212
lclavicle 2.62396e-014 5.96354e-014
lhumerus -14.8087 -52.284 114.358
lradius 32.1223
lwrist 45.0313
lhand -12.2693 71.3272
lfingers 7.12502
lthumb -166.203 79.1504
rfemur -26.1989 -1.13372 10.8372
rtibia 24.8569
rfoot -10.8596 -13.8647
rtoes 20.6527
lfemur -27.9003 4.31662 -6.79178
ltibia 24.9456
lfoot -8.81246 1.06574
ltoes -24.2511
